<svg width="64" height="64" viewBox="0 0 200 200" xmlns="http://www.w3.org/2000/svg">
  <circle cx="100" cy="100" r="98" fill="#ffffff"/>
  <g fill="#5a9c4a">
    <ellipse cx="46" cy="150" rx="7" ry="3.4" transform="rotate(-20 46 150)"/>
    <ellipse cx="41" cy="141" rx="7.5" ry="3.6" transform="rotate(-35 41 141)"/>
    <ellipse cx="38" cy="130" rx="8" ry="3.8" transform="rotate(-52 38 130)"/>
    <ellipse cx="37" cy="118" rx="8.2" ry="3.8" transform="rotate(-68 37 118)"/>
    <ellipse cx="38.5" cy="106" rx="8.2" ry="3.8" transform="rotate(-84 38.5 106)"/>
    <ellipse cx="42" cy="95" rx="8" ry="3.6" transform="rotate(-100 42 95)"/>
    <ellipse cx="48" cy="85" rx="7.6" ry="3.5" transform="rotate(-116 48 85)"/>
    <ellipse cx="56" cy="77" rx="7.2" ry="3.3" transform="rotate(-132 56 77)"/>
    <ellipse cx="65" cy="71" rx="6.6" ry="3.1" transform="rotate(-146 65 71)"/>
  </g>
  <g fill="#5a9c4a">
    <ellipse cx="154" cy="150" rx="7" ry="3.4" transform="rotate(20 154 150)"/>
    <ellipse cx="159" cy="141" rx="7.5" ry="3.6" transform="rotate(35 159 141)"/>
    <ellipse cx="162" cy="130" rx="8" ry="3.8" transform="rotate(52 162 130)"/>
    <ellipse cx="163" cy="118" rx="8.2" ry="3.8" transform="rotate(68 163 118)"/>
    <ellipse cx="161.5" cy="106" rx="8.2" ry="3.8" transform="rotate(84 161.5 106)"/>
    <ellipse cx="158" cy="95" rx="8" ry="3.6" transform="rotate(100 158 95)"/>
    <ellipse cx="152" cy="85" rx="7.6" ry="3.5" transform="rotate(116 152 85)"/>
    <ellipse cx="144" cy="77" rx="7.2" ry="3.3" transform="rotate(132 144 77)"/>
    <ellipse cx="135" cy="71" rx="6.6" ry="3.1" transform="rotate(146 135 71)"/>
  </g>
  <g fill="#5a9c4a">
    <path d="M100 158 l2.6 5.4 5.9 0.8 -4.3 4.1 1 5.9 -5.2 -2.8 -5.2 2.8 1 -5.9 -4.3 -4.1 5.9 -0.8 Z"/>
  </g>
  <g>
    <polygon points="100,46 148,62 100,78 52,62" fill="#1c1c1c"/>
    <polygon points="100,46 148,62 100,68 52,62" fill="#1c1c1c"/>
    <rect x="97" y="62" width="6" height="16" fill="#1c1c1c"/>
    <path d="M100 78 c-10 0 -18 5 -18 11 v3 c0 4 8 8 18 8 s18 -4 18 -8 v-3 c0 -6 -8 -11 -18 -11 Z" fill="#1c1c1c"/>
    <line x1="139" y1="64" x2="139" y2="86" stroke="#1c1c1c" stroke-width="2.4"/>
    <circle cx="139" cy="89" r="3.4" fill="#1c1c1c"/>
  </g>
  <g>
    <path d="M60 108 C74 101 87 101 100 108 C113 101 126 101 140 108 L140 132 C126 125 113 125 100 132 C87 125 74 125 60 132 Z"
          fill="none" stroke="#16324a" stroke-width="3.6" stroke-linejoin="round"/>
    <line x1="100" y1="108" x2="100" y2="132" stroke="#16324a" stroke-width="3.6"/>
  </g>
</svg>
